inDegrees=yes
name=ik_lifting_orientations
DataType=double
version=3
OpenSimVersion=4.5-2024-01-10-34fd6af
endheader
time	pelvis_tilt	pelvis_list	pelvis_rotation	pelvis_tx	pelvis_ty	pelvis_tz	hip_flexion_r	hip_adduction_r	hip_rotation_r	knee_angle_r	knee_angle_r_beta	ankle_angle_r	subtalar_angle_r	mtp_angle_r	hip_flexion_l	hip_adduction_l	hip_rotation_l	knee_angle_l	knee_angle_l_beta	ankle_angle_l	subtalar_angle_l	mtp_angle_l	lumbar_extension	lumbar_bending	lumbar_rotation	arm_flex_r	arm_add_r	arm_rot_r	elbow_flex_r	pro_sup_r	wrist_flex_r	wrist_dev_r	arm_flex_l	arm_add_l	arm_rot_l	elbow_flex_l	pro_sup_l	wrist_flex_l	wrist_dev_l
0.61	16.68393770438479	-3.250765647300657	-142.7351243719098	0	0.9399999998679526	0	45.00180656662608	-10.67915096677455	0	59.78538660864642	1.043451840898607	-5.229375973770226	0	0	45.00180656662608	-10.67915096677455	0	59.78538660864642	1.043451840898607	-5.229375973770226	0	0	-55.02704827469595	-52.74028823939847	16.61612513223877	66.93973282046422	-5.99841689327229	-2.07612692550394	10.2751906002231	2.787745955519071	0	0	0	-10.1654085886833	0	87.25121032653314	2.787745955519071	0	0
0.62	18.03027312292431	-3.420909396417218	-143.1318297138409	0	0.9399999998679526	0	45.00180392619804	-10.67570485831387	0	59.78563353915229	1.043456150648958	-5.227861570994214	0	0	45.00180392619804	-10.67570485831387	0	59.78563353915229	1.043456150648958	-5.227861570994214	0	0	-56.7625692784862	-53.9930370264074	14.00047633469885	68.19420454424082	-5.919749164187976	-1.781966090964216	11.06519024821206	2.784905021908447	0	0	0	-10.16904081840103	0	87.25401131554112	2.784905021908447	0	0
0.63	19.38477057109082	-3.4339882227852	-142.9849790262639	0	0.9399999998679526	0	45.00180158564321	-10.67266029548749	0	59.7858524979365	1.043459972200668	-5.226525498372496	0	0	45.00180158564321	-10.67266029548749	0	59.7858524979365	1.043459972200668	-5.226525498372496	0	0	-58.53033962550835	-54.63312458715609	11.19468626857633	69.30967446965025	-5.969969449035371	-1.543515012250659	11.65213230549729	2.782385687273013	0	0	0	-10.17226269290272	0	87.25649522755363	2.782385687273013	0	0
0.64	20.75662268689614	-3.459754747172587	-142.8987109447204	0	0.9399999998679526	0	45.0017992496492	-10.66963014596272	0	59.78607105326788	1.043463786710799	-5.225197387788549	0	0	45.0017992496492	-10.66963014596272	0	59.78607105326788	1.043463786710799	-5.225197387788549	0	0	-59.83853593254161	-55.1223856169594	8.764535672066755	70.17791051108107	-6.036425455226016	-1.208916632990703	12.19650790977239	2.779870466224903	0	0	0	-10.17547990388282	0	87.25897508396369	2.779870466224903	0	0
0.65	21.89717205057182	-3.433087005361306	-142.7549340681165	0	0.9399999998679526	0	45.00179712613862	-10.66688823756884	0	59.78627006345482	1.043467260093806	-5.223997445357873	0	0	45.00179712613862	-10.66688823756884	0	59.78627006345482	1.043467260093806	-5.223997445357873	0	0	-60.91433647413169	-55.41916651627682	6.828291535109291	70.87912666914711	-6.264493061995401	-1.140786573288824	12.53822371007543	2.777581971461658	0	0	0	-10.17840911435322	0	87.26123140222516	2.777581971461658	0	0
0.66	22.40483467459637	-3.45253948655584	-142.8018801669931	0	0.9399999998679526	0	45.00179470237227	-10.6637667649811	0	59.78649718159467	1.043471224053137	-5.222633055648061	0	0	45.00179470237227	-10.6637667649811	0	59.78649718159467	1.043471224053137	-5.222633055648061	0	0	-62.07849344445088	-55.64752879903623	5.531381443602751	71.63252652113162	-6.588961587530145	-1.225631646541618	12.76702758543355	2.774969309685185	0	0	0	-10.18175357469245	0	87.26380732978781	2.774969309685185	0	0
0.67	23.39771485640824	-3.49806384804018	-142.9197254651051	0	0.9399999998679526	0	45.00179209949545	-10.66041870342425	0	59.78674071349547	1.04347547448664	-5.221171153380152	0	0	45.00179209949545	-10.66041870342425	0	59.78674071349547	1.04347547448664	-5.221171153380152	0	0	-63.58589531631016	-56.08570428849747	3.500041973569971	72.54285887062437	-6.917942600729987	-1.429538626373277	13.22374154734508	2.772164349073889	0	0	0	-10.18534298782516	0	87.26657285238922	2.772164349073889	0	0
0.68	24.35306449270292	-3.541678449193074	-142.9262475741972	0	0.9399999998679526	0	45.00178931986961	-10.65685486574235	0	59.7870007586018	1.043480013129949	-5.2196173615806	0	0	45.00178931986961	-10.65685486574235	0	59.7870007586018	1.043480013129949	-5.2196173615806	0	0	-64.88598191287453	-56.44294542103356	1.600660182606624	73.32200702332558	-7.159775808537336	-1.770489568376673	13.81408218727788	2.769168026152645	0	0	0	-10.18917782128018	0	87.26952704689711	2.769168026152645	0	0
0.6899999999999999	25.28768196836458	-3.641397409827256	-143.1317460477933	0	0.9399999998679526	0	45.00178685521504	-10.65371299760955	0	59.7872317530371	1.043484044743399	-5.218250288908703	0	0	45.00178685521504	-10.65371299760955	0	59.7872317530371	1.043484044743399	-5.218250288908703	0	0	-66.25240220941507	-56.95666860988549	-0.3562023771508698	74.19381339079082	-7.298962944203628	-1.892299533743718	14.39548506711319	2.766508507086491	0	0	0	-10.19258413334635	0	87.27214917342381	2.766508507086491	0	0
0.7	26.10986174371231	-3.881399543947968	-143.7917767377104	0	0.9399999998679526	0	45.00178436312246	-10.65053739748573	0	59.78746527027066	1.043488120387984	-5.216868954925505	0	0	45.00178436312246	-10.65053739748573	0	59.78746527027066	1.043488120387984	-5.216868954925505	0	0	-67.37212046577196	-57.9181989989555	-1.949063584104564	74.94678564103886	-7.471587400333706	-1.909946114514369	14.47842709817832	2.763819116727482	0	0	0	-10.19602911773207	0	87.27480075136825	2.763819116727482	0	0
0.71	26.92108342314914	-4.110142600980753	-144.4571262900582	0	0.9399999998679526	0	45.00178283517536	-10.64860411181284	0	59.78760899675046	1.043490628888279	-5.216029646786037	0	0	45.00178283517536	-10.64860411181284	0	59.78760899675046	1.043490628888279	-5.216029646786037	0	0	-67.93091018133921	-58.80490596145444	-2.914592136985945	75.38441576035956	-7.836719621472067	-1.824768358315722	14.57340416337818	2.76216737771971	0	0	0	-10.1981478433263	0	87.27642926757505	2.76216737771971	0	0
0.72	27.48322781981296	-4.282562675921421	-144.7446419520978	0	0.9399999998679526	0	45.00178062010032	-10.6457883314832	0	59.7878161281006	1.043494244012323	-5.214806986541269	0	0	45.00178062010032	-10.6457883314832	0	59.7878161281006	1.043494244012323	-5.214806986541269	0	0	-68.86982805773238	-59.23075990002776	-4.0554314571217	75.90907851188092	-8.312170039373216	-1.740578371726484	15.33416590242645	2.759777669025853	0	0	0	-10.20120762984205	0	87.27878537728903	2.759777669025853	0	0
0.73	28.03802489619386	-4.306236314883162	-144.6987665709462	0	0.9399999998679526	0	45.00177771685132	-10.64212452612363	0	59.7880880477528	1.043498989905555	-5.213220432277237	0	0	45.00177771685132	-10.64212452612363	0	59.7880880477528	1.043498989905555	-5.213220432277237	0	0	-69.88964851216421	-59.1918892200972	-5.295767426241709	76.50576415205907	-8.782169071483652	-1.688762851680563	16.12148462343419	2.756642248986379	0	0	0	-10.20522490489152	0	87.28187671419944	2.756642248986379	0	0
0.74	28.59851804382832	-4.330236814606858	-144.6489519646364	0	0.9399999998679526	0	45.00177581204849	-10.63972334697428	0	59.78826649387774	1.043502104377973	-5.212181121924439	0	0	45.00177581204849	-10.63972334697428	0	59.78826649387774	1.043502104377973	-5.212181121924439	0	0	-70.94219967562431	-59.19677287597899	-6.691277036298132	77.11872415131542	-9.10938262904082	-1.675001812887808	16.88908243445599	2.754584583287216	0	0	0	-10.20786194128762	0	87.28390544981553	2.754584583287216	0	0
0.75	29.21908207072981	-4.423499837544672	-144.6674163790969	0	0.9399999998679526	0	45.0017737720672	-10.63715449629562	0	59.78845736463543	1.04350543570114	-5.211070224619013	0	0	45.0017737720672	-10.63715449629562	0	59.78845736463543	1.04350543570114	-5.211070224619013	0	0	-71.63676808790092	-59.33450601284017	-7.838125172991847	77.33587962083966	-9.314905521125832	-1.398357793861627	17.4312712717694	2.75238138583602	0	0	0	-10.21068469572659	0	87.28607767101785	2.75238138583602	0	0
0.76	29.81412634541267	-4.629543369060603	-145.0243079039108	0	0.9399999998679526	0	45.00177130302405	-10.63404718713828	0	59.78868792342656	1.043509459711165	-5.209727692754982	0	0	45.00177130302405	-10.63404718713828	0	59.78868792342656	1.043509459711165	-5.209727692754982	0	0	-72.94063963140216	-59.80335000136044	-9.516120234305383	77.81523406542402	-9.601733504820567	-0.755372970779547	17.85122306536803	2.749716038596991	0	0	0	-10.21409784786855	0	87.28870554420281	2.749716038596991	0	0
0.77	30.48946790887357	-4.870352344268862	-145.490181490708	0	0.9399999998679526	0	45.00176916904939	-10.63138269780729	0	59.78888804328911	1.043512952461665	-5.208579024096944	0	0	45.00176916904939	-10.63138269780729	0	59.78888804328911	1.043512952461665	-5.208579024096944	0	0	-74.28238587351831	-60.38364720963013	-11.33215459062155	78.30212007855299	-9.892134857628818	-0.366674876315855	18.4474909820018	2.747408013400024	0	0	0	-10.21705797559269	0	87.29098111980923	2.747408013400024	0	0
0.78	31.07170975569855	-5.156941015074074	-145.9993244030875	0	0.9399999998679526	0	45.00176619537976	-10.62769197879675	0	59.78916713896572	1.04351782360015	-5.206991764122737	0	0	45.00176619537976	-10.62769197879675	0	59.78916713896572	1.04351782360015	-5.206991764122737	0	0	-75.54006246973053	-60.99788817063782	-12.64173907697593	78.61739329066943	-10.33787729567608	-0.3027047034996855	19.2268502635039	2.744189454294802	0	0	0	-10.22118760642737	0	87.29415442803682	2.744189454294802	0	0
0.79	31.6943079598466	-5.248346898821826	-146.0657984844229	0	0.9399999998679526	0	45.00176386640358	-10.62479680492272	0	59.78938514166033	1.043521628464949	-5.205746876783187	0	0	45.00176386640358	-10.62479680492272	0	59.78938514166033	1.043521628464949	-5.205746876783187	0	0	-76.48053619961941	-61.05710682351475	-13.59696063653147	78.83421717209691	-10.98260458355482	-0.2099609587655065	19.68311772413634	2.741670660700951	0	0	0	-10.22441716282576	0	87.29663780880911	2.741670660700951	0	0
0.8	32.23964241309345	-5.223682029103138	-145.9951535666869	0	0.9399999998679526	0	45.00176232915532	-10.62288987925275	0	59.78952901571936	1.043524139540987	-5.204927746411	0	0	45.00176232915532	-10.62288987925275	0	59.78952901571936	1.043524139540987	-5.204927746411	0	0	-77.19861839979995	-60.94298982381532	-14.29484551838213	79.0493672111477	-11.58820527583806	-0.002293785699404657	19.93575417007785	2.740007837441687	0	0	0	-10.22654935433795	0	87.2982772537632	2.740007837441687	0	0
0.8100000000000001	32.74530617658323	-5.356890696284027	-146.1075847172156	0	0.9399999998679526	0	45.0017604401331	-10.62054940271277	0	59.7897056621171	1.04352722260224	-5.20392320730157	0	0	45.0017604401331	-10.62054940271277	0	59.7897056621171	1.04352722260224	-5.20392320730157	0	0	-78.40610133417367	-60.9413308049317	-15.5115515595945	79.43911287625443	-12.14157841067385	0.6160201008632895	20.22535667276056	2.737964729420524	0	0	0	-10.22916872266694	0	87.30029163689255	2.737964729420524	0	0
0.82	33.08703986863601	-5.62102136932858	-146.5639472412264	0	0.9399999998679526	0	45.00175838607542	-10.61801120796898	0	59.7898977255672	1.043530574741817	-5.202835149868829	0	0	45.00175838607542	-10.61801120796898	0	59.7898977255672	1.043530574741817	-5.202835149868829	0	0	-79.78431115759632	-61.30406981562541	-16.92028260556251	79.85414168849766	-12.40187505255108	1.276973346614751	20.51184341980636	2.735742598300028	0	0	0	-10.23201791327869	0	87.30248252625874	2.735742598300028	0	0
0.83	33.34114959996347	-6.024406596742278	-147.2729334975008	0	0.9399999998679526	0	45.00175556201054	-10.61456428988351	0	59.79016342189841	1.043535212017607	-5.201362772589901	0	0	45.00175556201054	-10.61456428988351	0	59.79016342189841	1.043535212017607	-5.201362772589901	0	0	-81.27158058246111	-61.91844202135339	-18.51793227980061	80.24741730067127	-12.37384716651158	1.513951303963587	20.79110867027105	2.732679012700001	0	0	0	-10.23595448034674	0	87.30550304090868	2.732679012700001	0	0
0.84	33.59862260382938	-6.381271766575312	-147.9371013577556	0	0.9399999998679526	0	45.00175340637117	-10.61192974155911	0	59.79036580871259	1.043538744333877	-5.200237544182111	0	0	45.00175340637117	-10.61192974155911	0	59.79036580871259	1.043538744333877	-5.200237544182111	0	0	-82.75411975830275	-62.53790147182362	-20.05195214390205	80.58624331799548	-12.38893159158289	1.419785553765144	21.33412801268981	2.730341938951211	0	0	0	-10.23895598621488	0	87.30780725761069	2.730341938951211	0	0
